<?xml version="1.0" encoding="utf-8"?>
<!-- Generator: Adobe Illustrator 19.1.0, SVG Export Plug-In . SVG Version: 6.00 Build 0)  -->
<svg version="1.1" id="Layer_1" xmlns="http://www.w3.org/2000/svg" xmlns:xlink="http://www.w3.org/1999/xlink" x="0px" y="0px"
	 viewBox="0 0 76.8 48" style="enable-background:new 0 0 76.8 48;" xml:space="preserve">
<style type="text/css">
	.st0{fill:#F9F9F9;}
	.st1{fill:#808080;}
	.st2{fill:#F58220;}
	.st3{fill:url(#SVGID_1_);}
	.st4{fill:#001722;}
	.st5{fill:#231F20;}
	.st6{fill:#888888;}
	.st7{fill:url(#SVGID_2_);}
	.st8{fill:#13457C;}
	.st9{fill-rule:evenodd;clip-rule:evenodd;fill:#FBB231;}
	.st10{fill-rule:evenodd;clip-rule:evenodd;fill:#EC1C2E;}
	.st11{fill-rule:evenodd;clip-rule:evenodd;fill:#FFFFFF;}
	.st12{fill:none;stroke:#FFFFFF;stroke-width:0.216;stroke-miterlimit:2.6131;}
	.st13{fill-rule:evenodd;clip-rule:evenodd;fill:#B3B3B3;}
	.st14{fill-rule:evenodd;clip-rule:evenodd;fill:#666666;}
	.st15{fill:#0066B2;}
	.st16{fill:#F9A533;}
	.st17{fill:#CCCCCC;}
	.st18{fill-rule:evenodd;clip-rule:evenodd;fill:#0078A9;}
	.st19{fill-rule:evenodd;clip-rule:evenodd;fill:#999999;}
</style>
<path class="st8" d="M76.8,45.4c0,1.4-1.1,2.6-2.6,2.6H2.6C1.1,48,0,46.9,0,45.4V2.6C0,1.1,1.1,0,2.6,0h71.6c1.4,0,2.6,1.1,2.6,2.6
	V45.4z"/>
<g>
	<path class="st1" d="M74.2,1c0.9,0,1.6,0.7,1.6,1.6v42.9c0,0.9-0.7,1.6-1.6,1.6H2.6C1.7,47,1,46.3,1,45.5V2.6C1,1.7,1.7,1,2.6,1
		H74.2 M74.2,0H2.6C1.1,0,0,1.1,0,2.6v42.9C0,46.9,1.1,48,2.6,48h71.6c1.4,0,2.6-1.1,2.6-2.6V2.6C76.8,1.1,75.6,0,74.2,0L74.2,0z"/>
</g>
<g>
	<polygon class="st9" points="47.7,37.8 48.4,37.8 49.1,37.7 49.8,37.6 50.5,37.5 51.2,37.4 51.8,37.2 52.5,37 53.1,36.7 53.7,36.4 
		54.3,36.1 54.9,35.8 55.5,35.4 56,35.1 56.5,34.7 57,34.2 57.5,33.8 58,33.3 58.4,32.8 58.8,32.3 59.2,31.7 59.5,31.2 59.9,30.6 
		60.2,30 60.5,29.4 60.7,28.7 60.9,28.1 61.1,27.4 61.3,26.8 61.4,26.1 61.5,25.4 61.5,24.7 61.5,24 61.5,23.3 61.5,22.6 61.4,21.9 
		61.3,21.2 61.1,20.6 60.9,19.9 60.7,19.3 60.5,18.6 60.2,18 59.9,17.4 59.5,16.9 59.2,16.3 58.8,15.8 58.4,15.2 58,14.7 57.5,14.3 
		57,13.8 56.5,13.4 56,13 55.5,12.6 54.9,12.2 54.3,11.9 53.7,11.6 53.1,11.3 52.5,11.1 51.8,10.8 51.2,10.7 50.5,10.5 49.8,10.4 
		49.1,10.3 48.4,10.2 47.7,10.2 47,10.2 46.3,10.3 45.6,10.4 44.9,10.5 44.3,10.7 43.6,10.8 43,11.1 42.4,11.3 41.8,11.6 41.2,11.9 
		40.6,12.2 40,12.6 39.5,13 39,13.4 38.5,13.8 38,14.3 37.5,14.7 37.1,15.2 36.7,15.8 36.3,16.3 36,16.9 35.6,17.4 35.3,18 35,18.6 
		34.8,19.3 34.6,19.9 34.4,20.6 34.2,21.2 34.1,21.9 34,22.6 34,23.3 34,24 34,24.7 34,25.4 34.1,26.1 34.2,26.8 34.4,27.4 
		34.6,28.1 34.8,28.7 35,29.4 35.3,30 35.6,30.6 36,31.2 36.3,31.7 36.7,32.3 37.1,32.8 37.5,33.3 38,33.8 38.5,34.2 39,34.7 
		39.5,35.1 40,35.4 40.6,35.8 41.2,36.1 41.8,36.4 42.4,36.7 43,37 43.6,37.2 44.3,37.4 44.9,37.5 45.6,37.6 46.3,37.7 47,37.8 
		47.7,37.8 47.7,37.8 	"/>
	<polygon class="st10" points="29.3,37.8 30,37.8 30.7,37.7 31.4,37.6 32.1,37.5 32.7,37.4 33.4,37.2 34,37 34.6,36.7 35.3,36.4 
		35.8,36.1 36.4,35.8 37,35.4 37.5,35.1 38,34.7 38.5,34.2 39,33.8 39.5,33.3 39.9,32.8 40.3,32.3 40.7,31.7 41.1,31.2 41.4,30.6 
		41.7,30 42,29.4 42.2,28.7 42.4,28.1 42.6,27.4 42.8,26.8 42.9,26.1 43,25.4 43,24.7 43,24 43,23.3 43,22.6 42.9,21.9 42.8,21.2 
		42.6,20.6 42.4,19.9 42.2,19.3 42,18.6 41.7,18 41.4,17.4 41.1,16.9 40.7,16.3 40.3,15.8 39.9,15.2 39.5,14.7 39,14.3 38.5,13.8 
		38,13.4 37.5,13 37,12.6 36.4,12.2 35.8,11.9 35.3,11.6 34.6,11.3 34,11.1 33.4,10.8 32.7,10.7 32.1,10.5 31.4,10.4 30.7,10.3 
		30,10.2 29.3,10.2 28.6,10.2 27.9,10.3 27.2,10.4 26.5,10.5 25.8,10.7 25.2,10.8 24.5,11.1 23.9,11.3 23.3,11.6 22.7,11.9 
		22.1,12.2 21.6,12.6 21,13 20.5,13.4 20,13.8 19.5,14.3 19.1,14.7 18.6,15.2 18.2,15.8 17.8,16.3 17.5,16.9 17.1,17.4 16.8,18 
		16.5,18.6 16.3,19.3 16.1,19.9 15.9,20.6 15.7,21.2 15.6,21.9 15.5,22.6 15.5,23.3 15.5,24 15.5,24.7 15.5,25.4 15.6,26.1 
		15.7,26.8 15.9,27.4 16.1,28.1 16.3,28.7 16.5,29.4 16.8,30 17.1,30.6 17.5,31.2 17.8,31.7 18.2,32.3 18.6,32.8 19.1,33.3 
		19.5,33.8 20,34.2 20.5,34.7 21,35.1 21.6,35.4 22.1,35.8 22.7,36.1 23.3,36.4 23.9,36.7 24.5,37 25.2,37.2 25.8,37.4 26.5,37.5 
		27.2,37.6 27.9,37.7 28.6,37.8 29.3,37.8 29.3,37.8 	"/>
	<polygon class="st9" points="36.9,15.5 44.2,15.5 44.2,14.8 37.5,14.8 36.9,15.5 36.9,15.5 	"/>
	<polygon class="st9" points="35.8,17.2 44.2,17.2 44.2,16.4 36.2,16.4 35.8,17.2 35.8,17.2 	"/>
	<polygon class="st9" points="35,18.8 44.2,18.8 44.2,18.1 35.3,18.1 35,18.8 35,18.8 	"/>
	<polygon class="st9" points="34.4,20.5 44.2,20.5 44.2,19.8 34.6,19.8 34.4,20.5 34.4,20.5 	"/>
	<polygon class="st9" points="34.7,28.6 44.2,28.6 44.2,27.8 34.5,27.8 34.7,28.6 34.7,28.6 	"/>
	<polygon class="st9" points="35.4,30.2 44.2,30.2 44.2,29.5 35.1,29.5 35.4,30.2 35.4,30.2 	"/>
	<polygon class="st9" points="36.4,31.9 44.2,31.9 44.2,31.1 36,31.1 36.4,31.9 36.4,31.9 	"/>
	<polygon class="st9" points="37.8,33.5 44.2,33.5 44.2,32.8 37.1,32.8 37.8,33.5 37.8,33.5 	"/>
	<polygon class="st9" points="34.1,22.2 44.2,22.2 44.2,21.4 34.2,21.4 34.1,22.2 34.1,22.2 	"/>
	<polygon class="st9" points="40.3,26.9 44.1,26.9 44.1,26.1 40.4,26.1 40.3,26.9 40.3,26.9 	"/>
	<polygon class="st9" points="40.6,25.2 44.1,25.2 44.1,24.5 40.7,24.5 40.6,25.2 40.6,25.2 	"/>
	<polygon class="st9" points="33.8,24.5 34.8,24.5 34.8,25.2 33.9,25.2 33.8,24.5 33.8,24.5 	"/>
	<polygon class="st11" points="31.9,23.6 31.9,23.6 31.8,23.6 31.8,23.6 31.7,23.5 31.6,23.5 31.6,23.5 31.5,23.5 31.5,23.5 
		31.4,23.5 31.3,23.5 31.2,23.5 31.1,23.5 31,23.5 30.9,23.5 30.8,23.5 30.7,23.5 30.6,23.5 30.5,23.5 30.4,23.6 30.4,23.6 
		30.3,23.6 30.2,23.7 30.2,23.7 30.1,23.7 30.1,23.8 30.1,23.8 30.1,23.9 30.1,24 30.1,24 30.1,24.1 30.1,24.1 30.2,24.2 30.3,24.3 
		30.4,24.4 30.5,24.4 30.7,24.5 30.8,24.5 31,24.6 31.1,24.6 31.3,24.7 31.4,24.8 31.5,24.9 31.7,25 31.8,25.1 31.8,25.3 31.9,25.5 
		31.9,25.8 31.9,26.1 31.8,26.3 31.8,26.5 31.7,26.6 31.6,26.8 31.5,26.9 31.4,27 31.3,27.1 31.1,27.2 31,27.3 30.8,27.4 30.7,27.4 
		30.5,27.4 30.3,27.5 30.2,27.5 30,27.5 29.9,27.5 29.7,27.5 29.5,27.5 29.3,27.5 29.2,27.5 29,27.5 28.9,27.5 28.8,27.5 28.7,27.5 
		28.6,27.4 28.5,27.4 28.4,27.4 28.3,27.4 28.3,27.4 28.2,27.3 28.1,27.3 28,27.3 28.3,26.3 28.3,26.3 28.3,26.3 28.4,26.3 
		28.5,26.3 28.6,26.3 28.7,26.4 28.8,26.4 28.9,26.4 29,26.4 29.1,26.4 29.2,26.5 29.4,26.5 29.5,26.5 29.6,26.5 29.8,26.5 
		29.9,26.5 30,26.4 30.2,26.4 30.2,26.4 30.3,26.3 30.3,26.2 30.4,26.1 30.4,26.1 30.4,26 30.4,25.9 30.4,25.8 30.3,25.7 30.2,25.6 
		30.1,25.5 29.9,25.4 29.7,25.4 29.5,25.3 29.4,25.2 29.2,25.1 29,25 28.9,24.9 28.7,24.7 28.7,24.5 28.6,24.2 28.6,23.9 28.6,23.7 
		28.7,23.6 28.7,23.4 28.8,23.3 28.9,23.1 28.9,23 29,22.9 29.2,22.8 29.3,22.7 29.4,22.6 29.6,22.6 29.8,22.5 30,22.5 30.2,22.4 
		30.5,22.4 30.8,22.4 30.9,22.4 31.1,22.4 31.2,22.4 31.4,22.4 31.5,22.4 31.6,22.4 31.7,22.4 31.8,22.5 31.8,22.5 31.9,22.5 
		32,22.5 32,22.5 32.1,22.5 32.1,22.5 32.2,22.5 32.2,22.5 31.9,23.6 31.9,23.6 	"/>
	<polyline class="st12" points="31.9,23.6 31.9,23.6 31.9,23.6 31.8,23.6 31.8,23.6 31.7,23.5 31.6,23.5 31.6,23.5 31.5,23.5 
		31.5,23.5 31.4,23.5 31.3,23.5 31.2,23.5 31.1,23.5 31,23.5 30.9,23.5 30.8,23.5 30.7,23.5 30.7,23.5 30.6,23.5 30.5,23.5 
		30.4,23.6 30.4,23.6 30.3,23.6 30.2,23.7 30.2,23.7 30.1,23.7 30.1,23.8 30.1,23.8 30.1,23.9 30.1,24 30.1,24 30.1,24.1 30.1,24.1 
		30.2,24.2 30.2,24.2 30.3,24.3 30.4,24.4 30.5,24.4 30.7,24.5 30.8,24.5 31,24.6 31.1,24.6 31.3,24.7 31.4,24.8 31.5,24.9 31.7,25 
		31.8,25.1 31.8,25.3 31.9,25.5 31.9,25.8 31.9,26.1 31.9,26.1 31.8,26.3 31.8,26.5 31.7,26.6 31.6,26.8 31.5,26.9 31.4,27 
		31.3,27.1 31.1,27.2 31,27.3 30.8,27.4 30.7,27.4 30.5,27.4 30.3,27.5 30.2,27.5 30,27.5 29.9,27.5 29.9,27.5 29.7,27.5 29.5,27.5 
		29.3,27.5 29.2,27.5 29,27.5 28.9,27.5 28.8,27.5 28.7,27.5 28.6,27.4 28.5,27.4 28.4,27.4 28.3,27.4 28.3,27.4 28.2,27.3 
		28.1,27.3 28,27.3 28.3,26.3 28.3,26.3 28.3,26.3 28.3,26.3 28.4,26.3 28.5,26.3 28.6,26.3 28.7,26.4 28.8,26.4 28.9,26.4 29,26.4 
		29.1,26.4 29.2,26.5 29.4,26.5 29.5,26.5 29.6,26.5 29.8,26.5 29.9,26.5 29.9,26.5 30,26.4 30.2,26.4 30.2,26.4 30.3,26.3 
		30.3,26.2 30.4,26.1 30.4,26.1 30.4,26 30.4,26 30.4,25.9 30.4,25.8 30.3,25.7 30.2,25.6 30.1,25.5 29.9,25.4 29.7,25.4 29.5,25.3 
		29.4,25.2 29.2,25.1 29,25 28.9,24.9 28.7,24.7 28.7,24.5 28.6,24.2 28.6,23.9 28.6,23.9 28.6,23.7 28.7,23.6 28.7,23.4 28.8,23.3 
		28.9,23.1 28.9,23 29,22.9 29.2,22.8 29.3,22.7 29.4,22.6 29.6,22.6 29.8,22.5 30,22.5 30.2,22.4 30.5,22.4 30.8,22.4 30.8,22.4 
		30.9,22.4 31.1,22.4 31.2,22.4 31.4,22.4 31.5,22.4 31.6,22.4 31.7,22.4 31.8,22.5 31.8,22.5 31.9,22.5 32,22.5 32,22.5 32.1,22.5 
		32.1,22.5 32.2,22.5 32.2,22.5 31.9,23.6 	"/>
	<polygon class="st11" points="33.1,21.4 34.3,21.4 34.2,22.5 34.9,22.5 34.8,23.6 33.9,23.5 33.5,26.1 33.5,26.2 33.5,26.3 
		33.6,26.4 33.6,26.4 33.7,26.4 33.8,26.5 33.9,26.5 34,26.5 34.1,26.5 34.2,26.5 34.3,26.5 34.4,26.4 34.4,26.4 34.5,26.4 
		34.5,26.4 34.5,26.4 34.3,27.3 34.3,27.3 34.3,27.3 34.2,27.3 34.2,27.3 34.2,27.4 34.1,27.4 34.1,27.4 34.1,27.4 34,27.4 34,27.4 
		33.9,27.4 33.9,27.4 33.8,27.5 33.7,27.5 33.6,27.5 33.6,27.5 33.2,27.5 33,27.5 32.9,27.4 32.7,27.4 32.6,27.4 32.5,27.3 
		32.4,27.3 32.3,27.2 32.3,27.2 32.2,27.1 32.2,27 32.2,27 32.1,26.9 32.1,26.8 32.1,26.7 32.2,26.6 32.2,26.4 33.1,21.4 33.1,21.4 
			"/>
	<polyline class="st12" points="33.1,21.4 34.3,21.4 34.2,22.5 34.9,22.5 34.8,23.6 33.9,23.5 33.5,26.1 33.5,26.1 33.5,26.2 
		33.5,26.3 33.6,26.4 33.6,26.4 33.7,26.4 33.8,26.5 33.9,26.5 34,26.5 34,26.5 34.1,26.5 34.2,26.5 34.3,26.5 34.4,26.4 34.4,26.4 
		34.5,26.4 34.5,26.4 34.5,26.4 34.3,27.3 34.3,27.3 34.3,27.3 34.3,27.3 34.2,27.3 34.2,27.3 34.2,27.4 34.1,27.4 34.1,27.4 
		34.1,27.4 34,27.4 34,27.4 33.9,27.4 33.9,27.4 33.8,27.5 33.7,27.5 33.6,27.5 33.6,27.5 33.2,27.5 33.2,27.5 33,27.5 32.9,27.4 
		32.7,27.4 32.6,27.4 32.5,27.3 32.4,27.3 32.3,27.2 32.3,27.2 32.2,27.1 32.2,27 32.2,27 32.1,26.9 32.1,26.8 32.1,26.7 32.2,26.6 
		32.2,26.4 33.1,21.4 	"/>
	<polyline class="st12" points="36,25.3 36,25.3 35.9,25.4 35.9,25.5 35.9,25.6 36,25.6 36,25.7 36,25.8 36.1,25.9 36.1,26 
		36.2,26.1 36.3,26.1 36.3,26.2 36.4,26.3 36.5,26.3 36.6,26.3 36.7,26.4 36.8,26.4 36.8,26.4 36.9,26.4 37,26.4 37.2,26.4 
		37.3,26.5 37.4,26.5 37.5,26.5 37.6,26.5 37.8,26.4 37.9,26.4 38,26.4 38.1,26.4 38.3,26.3 38.4,26.3 38.5,26.2 38.7,26.2 
		38.8,26.1 38.6,27.2 38.6,27.2 38.5,27.3 38.5,27.3 38.4,27.3 38.3,27.4 38.3,27.4 38.2,27.4 38.1,27.4 38,27.4 37.9,27.4 
		37.9,27.5 37.8,27.5 37.6,27.5 37.5,27.5 37.4,27.5 37.3,27.5 37.1,27.5 37.1,27.5 36.9,27.5 36.6,27.5 36.4,27.4 36.2,27.4 
		36,27.3 35.7,27.2 35.5,27.1 35.3,27 35.1,26.8 35,26.6 34.9,26.4 34.7,26.1 34.7,25.9 34.6,25.6 34.6,25.2 34.6,24.8 34.6,24.8 
		34.6,24.7 34.7,24.5 34.7,24.3 34.8,24.1 34.8,23.9 34.9,23.7 35,23.5 35.1,23.3 35.3,23.2 35.5,23 35.7,22.8 35.9,22.7 36.2,22.6 
		36.5,22.5 36.8,22.4 37.2,22.4 37.2,22.4 37.4,22.4 37.6,22.4 37.8,22.5 37.9,22.5 38.1,22.6 38.3,22.7 38.5,22.8 38.6,22.9 
		38.8,23.1 38.9,23.2 39,23.5 39.1,23.7 39.1,24 39.1,24.3 39.1,24.7 39,25 39,25.3 35.6,25.3 35.8,24.4 37.8,24.4 37.8,24.4 
		37.8,24.3 37.8,24.2 37.8,24.1 37.8,24 37.8,23.9 37.7,23.8 37.7,23.7 37.6,23.7 37.6,23.6 37.5,23.6 37.5,23.5 37.4,23.5 
		37.3,23.5 37.2,23.5 37.2,23.4 37.1,23.4 37.1,23.4 37,23.4 36.9,23.5 36.8,23.5 36.8,23.5 36.7,23.5 36.6,23.6 36.5,23.6 
		36.5,23.7 36.4,23.7 36.4,23.8 36.3,23.9 36.3,24 36.2,24.1 36.2,24.2 36.2,24.2 36.1,24.3 36,25.3 	"/>
	<polygon class="st11" points="47,22.8 47,22.7 46.9,22.7 46.9,22.7 46.8,22.7 46.7,22.6 46.6,22.6 46.6,22.6 46.5,22.5 46.4,22.5 
		46.3,22.5 46.2,22.5 46.1,22.5 46,22.5 45.9,22.4 45.8,22.4 45.7,22.4 45.6,22.4 45.4,22.5 45.3,22.5 45.2,22.5 45,22.5 44.9,22.6 
		44.8,22.6 44.7,22.7 44.5,22.8 44.4,23 44.3,23.1 44.2,23.3 44.1,23.5 44,23.7 43.9,24 43.8,24.3 43.8,24.4 43.8,24.6 43.8,24.8 
		43.8,24.9 43.8,25.1 43.8,25.2 43.9,25.4 43.9,25.5 44,25.6 44.1,25.8 44.2,25.9 44.3,26 44.4,26 44.5,26.1 44.7,26.2 44.9,26.2 
		44.9,26.2 45,26.2 45.1,26.3 45.2,26.3 45.3,26.3 45.4,26.3 45.5,26.3 45.6,26.3 45.7,26.2 45.9,26.2 46,26.2 46.1,26.2 46.2,26.1 
		46.3,26 46.4,26 46.5,25.9 46.3,27.1 46.3,27.2 46.2,27.2 46.2,27.2 46.2,27.2 46.1,27.3 46,27.3 46,27.3 45.9,27.4 45.8,27.4 
		45.7,27.4 45.5,27.4 45.4,27.5 45.2,27.5 45,27.5 44.7,27.5 44.5,27.5 44.3,27.4 44,27.4 43.8,27.3 43.6,27.2 43.4,27.1 43.2,27 
		43,26.8 42.9,26.6 42.7,26.4 42.6,26.2 42.5,25.9 42.4,25.6 42.3,25.3 42.3,25 42.3,24.6 42.4,24.2 42.4,24.1 42.4,23.9 42.5,23.7 
		42.5,23.5 42.6,23.4 42.6,23.2 42.7,23 42.8,22.9 42.8,22.8 42.9,22.6 43,22.5 43.1,22.4 43.2,22.2 43.3,22.1 43.3,22 43.4,21.9 
		43.5,21.8 43.7,21.8 43.8,21.7 43.9,21.6 44,21.5 44.1,21.5 44.3,21.4 44.4,21.4 44.5,21.3 44.7,21.3 44.8,21.2 45,21.2 45.2,21.2 
		45.3,21.2 45.5,21.2 45.7,21.2 45.8,21.2 46,21.2 46.1,21.2 46.2,21.2 46.4,21.2 46.5,21.3 46.6,21.3 46.7,21.3 46.8,21.3 
		46.9,21.4 47,21.4 47.1,21.4 47.2,21.4 47.2,21.5 47.3,21.5 47.3,21.5 47,22.8 47,22.8 	"/>
	<polyline class="st12" points="47,22.8 47,22.8 47,22.7 46.9,22.7 46.9,22.7 46.8,22.7 46.7,22.6 46.6,22.6 46.6,22.6 46.5,22.5 
		46.4,22.5 46.3,22.5 46.2,22.5 46.1,22.5 46,22.5 45.9,22.4 45.8,22.4 45.7,22.4 45.7,22.4 45.6,22.4 45.4,22.5 45.3,22.5 
		45.2,22.5 45,22.5 44.9,22.6 44.8,22.6 44.7,22.7 44.5,22.8 44.4,23 44.3,23.1 44.2,23.3 44.1,23.5 44,23.7 43.9,24 43.8,24.3 
		43.8,24.3 43.8,24.4 43.8,24.6 43.8,24.8 43.8,24.9 43.8,25.1 43.8,25.2 43.9,25.4 43.9,25.5 44,25.6 44.1,25.8 44.2,25.9 44.3,26 
		44.4,26 44.5,26.1 44.7,26.2 44.9,26.2 44.9,26.2 44.9,26.2 45,26.2 45.1,26.3 45.2,26.3 45.3,26.3 45.4,26.3 45.5,26.3 45.6,26.3 
		45.7,26.2 45.9,26.2 46,26.2 46.1,26.2 46.2,26.1 46.3,26 46.4,26 46.5,25.9 46.3,27.1 46.3,27.1 46.3,27.2 46.2,27.2 46.2,27.2 
		46.2,27.2 46.1,27.3 46,27.3 46,27.3 45.9,27.4 45.8,27.4 45.7,27.4 45.5,27.4 45.4,27.5 45.2,27.5 45,27.5 44.7,27.5 44.5,27.5 
		44.5,27.5 44.3,27.4 44,27.4 43.8,27.3 43.6,27.2 43.4,27.1 43.2,27 43,26.8 42.9,26.6 42.7,26.4 42.6,26.2 42.5,25.9 42.4,25.6 
		42.3,25.3 42.3,25 42.3,24.6 42.4,24.2 42.4,24.2 42.4,24.1 42.4,23.9 42.5,23.7 42.5,23.5 42.6,23.4 42.6,23.2 42.7,23 42.8,22.9 
		42.8,22.8 42.9,22.6 43,22.5 43.1,22.4 43.2,22.2 43.3,22.1 43.3,22 43.4,21.9 43.5,21.8 43.7,21.8 43.8,21.7 43.9,21.6 44,21.5 
		44.1,21.5 44.3,21.4 44.4,21.4 44.5,21.3 44.7,21.3 44.8,21.2 45,21.2 45.2,21.2 45.3,21.2 45.5,21.2 45.7,21.2 45.7,21.2 
		45.8,21.2 46,21.2 46.1,21.2 46.2,21.2 46.4,21.2 46.5,21.3 46.6,21.3 46.7,21.3 46.8,21.3 46.9,21.4 47,21.4 47.1,21.4 47.2,21.4 
		47.2,21.5 47.3,21.5 47.3,21.5 47,22.8 	"/>
	<polygon class="st11" points="58.5,27.5 57.2,27.5 57.3,27 57.3,26.9 57.2,27 57.2,27.1 57.1,27.2 57,27.2 56.9,27.3 56.8,27.3 
		56.7,27.4 56.6,27.4 56.6,27.5 56.5,27.5 56.4,27.5 56.3,27.5 56.2,27.5 56.1,27.5 56,27.6 55.9,27.6 55.7,27.5 55.5,27.5 
		55.3,27.4 55.1,27.3 54.9,27.2 54.7,27 54.6,26.8 54.5,26.6 54.4,26.4 54.3,26.2 54.3,26 54.3,25.7 54.2,25.5 54.2,25.3 54.3,25 
		54.3,24.8 54.4,24.5 54.5,24.3 54.6,24 54.7,23.8 54.8,23.6 54.9,23.4 55.1,23.2 55.2,23.1 55.4,22.9 55.6,22.8 55.7,22.7 
		55.9,22.6 56.1,22.6 56.3,22.5 56.5,22.5 56.7,22.5 56.8,22.5 56.9,22.5 57.1,22.5 57.2,22.6 57.3,22.6 57.4,22.7 57.5,22.7 
		57.5,22.8 57.6,22.8 57.7,22.9 57.7,22.9 57.8,23 57.9,23.1 57.9,23.1 57.9,23.2 58,23.2 58,23.2 58.3,21.4 59.5,21.4 58.5,27.5 
		58.5,27.5 	"/>
	<polyline class="st12" points="58.5,27.5 57.2,27.5 57.3,27 57.3,26.9 57.3,26.9 57.2,27 57.2,27.1 57.1,27.2 57,27.2 56.9,27.3 
		56.8,27.3 56.7,27.4 56.6,27.4 56.6,27.5 56.5,27.5 56.4,27.5 56.3,27.5 56.2,27.5 56.1,27.5 56,27.6 55.9,27.6 55.9,27.6 
		55.7,27.5 55.5,27.5 55.3,27.4 55.1,27.3 54.9,27.2 54.7,27 54.6,26.8 54.5,26.6 54.4,26.4 54.3,26.2 54.3,26 54.3,25.7 54.2,25.5 
		54.2,25.3 54.3,25 54.3,24.8 54.3,24.8 54.4,24.5 54.5,24.3 54.6,24 54.7,23.8 54.8,23.6 54.9,23.4 55.1,23.2 55.2,23.1 55.4,22.9 
		55.6,22.8 55.7,22.7 55.9,22.6 56.1,22.6 56.3,22.5 56.5,22.5 56.7,22.5 56.7,22.5 56.8,22.5 56.9,22.5 57.1,22.5 57.2,22.6 
		57.3,22.6 57.4,22.7 57.5,22.7 57.5,22.8 57.6,22.8 57.7,22.9 57.7,22.9 57.8,23 57.9,23.1 57.9,23.1 57.9,23.2 58,23.2 58,23.2 
		58.3,21.4 59.5,21.4 58.5,27.5 	"/>
	<polygon class="st9" points="56.4,26.4 56.5,26.3 56.6,26.3 56.8,26.3 56.9,26.2 57,26.2 57.1,26.1 57.1,26 57.2,25.9 57.3,25.9 
		57.4,25.7 57.4,25.6 57.5,25.5 57.5,25.4 57.5,25.3 57.6,25.2 57.6,25 57.6,24.9 57.6,24.8 57.6,24.7 57.6,24.5 57.6,24.4 
		57.6,24.3 57.6,24.2 57.5,24.1 57.5,24 57.4,23.9 57.4,23.8 57.3,23.7 57.2,23.7 57.1,23.7 57.1,23.6 57,23.6 56.8,23.6 56.7,23.6 
		56.6,23.7 56.5,23.7 56.4,23.8 56.3,23.9 56.2,23.9 56.2,24 56.1,24.1 56,24.2 56,24.4 55.9,24.5 55.9,24.6 55.8,24.7 55.8,24.9 
		55.8,25 55.7,25.2 55.7,25.4 55.8,25.7 55.8,25.9 55.9,26.1 56.1,26.2 56.2,26.3 56.4,26.4 56.4,26.4 	"/>
	<polygon class="st11" points="27.8,26.4 27.6,27.5 26.5,27.5 26.5,27.3 26.5,27.1 26.5,27 26.6,26.9 26.5,27 26.4,27.1 26.3,27.1 
		26.2,27.2 26.1,27.3 26,27.3 25.9,27.4 25.8,27.4 25.6,27.5 25.5,27.5 25.4,27.5 25.2,27.5 25.1,27.6 25,27.6 24.8,27.5 24.7,27.5 
		24.5,27.5 24.4,27.4 24.3,27.4 24.1,27.3 24,27.2 23.9,27.2 23.9,27.1 23.8,27 23.7,26.9 23.7,26.8 23.7,26.7 23.6,26.6 23.6,26.5 
		23.6,26.3 23.6,26.2 23.6,26.1 23.6,26 23.6,25.8 23.7,25.6 23.7,25.5 23.8,25.3 23.9,25.2 24,25.1 24.1,24.9 24.2,24.8 24.4,24.7 
		24.5,24.6 24.6,24.6 24.8,24.5 24.9,24.5 25.1,24.4 25.3,24.4 25.3,24.4 25.3,24.4 25.3,24.4 25.4,24.4 25.4,24.4 25.5,24.4 
		25.6,24.3 25.6,24.3 25.7,24.3 25.8,24.3 25.9,24.3 26,24.3 26,24.3 26.1,24.3 26.2,24.3 26.2,24.3 26.3,24.3 26.4,24.3 26.5,24.3 
		26.6,24.3 26.7,24.3 26.8,24.3 26.8,24.3 26.8,24.3 26.9,24.3 26.9,24.2 26.9,24.1 26.9,24 26.9,23.9 26.9,23.8 26.8,23.7 
		26.7,23.7 26.6,23.6 26.5,23.6 26.4,23.5 26.3,23.5 26.2,23.5 26,23.5 25.9,23.5 25.7,23.5 25.6,23.5 25.4,23.5 25.3,23.6 
		25.1,23.6 25,23.6 24.9,23.6 24.8,23.6 24.6,23.7 24.5,23.7 24.5,23.7 24.4,23.8 24.3,23.8 24.7,22.7 24.8,22.6 24.9,22.6 25,22.6 
		25.1,22.5 25.2,22.5 25.3,22.5 25.5,22.5 25.6,22.5 25.7,22.4 25.8,22.4 26,22.4 26.1,22.4 26.3,22.4 26.4,22.4 26.6,22.4 
		26.8,22.4 26.9,22.5 27,22.5 27.2,22.5 27.3,22.6 27.5,22.6 27.6,22.7 27.7,22.8 27.9,22.8 28,22.9 28.1,23.1 28.2,23.2 28.3,23.3 
		28.3,23.5 28.3,23.6 28.3,23.8 28.3,24 27.8,26.4 27.8,26.4 	"/>
	<polyline class="st12" points="27.8,26.4 27.6,27.5 26.5,27.5 26.5,27.5 26.5,27.3 26.5,27.1 26.5,27 26.6,26.9 26.6,26.9 26.5,27 
		26.4,27.1 26.3,27.1 26.2,27.2 26.1,27.3 26,27.3 25.9,27.4 25.8,27.4 25.6,27.5 25.5,27.5 25.4,27.5 25.2,27.5 25.1,27.6 25,27.6 
		24.8,27.5 24.7,27.5 24.7,27.5 24.5,27.5 24.4,27.4 24.3,27.4 24.1,27.3 24,27.2 23.9,27.2 23.9,27.1 23.8,27 23.7,26.9 23.7,26.8 
		23.7,26.7 23.6,26.6 23.6,26.5 23.6,26.3 23.6,26.2 23.6,26.1 23.6,26.1 23.6,26 23.6,25.8 23.7,25.6 23.7,25.5 23.8,25.3 
		23.9,25.2 24,25.1 24.1,24.9 24.2,24.8 24.4,24.7 24.5,24.6 24.6,24.6 24.8,24.5 24.9,24.5 25.1,24.4 25.3,24.4 25.3,24.4 
		25.3,24.4 25.3,24.4 25.3,24.4 25.4,24.4 25.4,24.4 25.5,24.4 25.6,24.3 25.6,24.3 25.7,24.3 25.8,24.3 25.9,24.3 26,24.3 26,24.3 
		26.1,24.3 26.2,24.3 26.2,24.3 26.2,24.3 26.3,24.3 26.4,24.3 26.5,24.3 26.6,24.3 26.7,24.3 26.8,24.3 26.8,24.3 26.8,24.3 
		26.8,24.3 26.9,24.3 26.9,24.2 26.9,24.1 26.9,24 26.9,24 26.9,23.9 26.9,23.8 26.8,23.7 26.7,23.7 26.6,23.6 26.5,23.6 26.4,23.5 
		26.3,23.5 26.3,23.5 26.2,23.5 26,23.5 25.9,23.5 25.7,23.5 25.6,23.5 25.4,23.5 25.3,23.6 25.1,23.6 25,23.6 24.9,23.6 24.8,23.6 
		24.6,23.7 24.5,23.7 24.5,23.7 24.4,23.8 24.3,23.8 24.7,22.7 24.7,22.7 24.8,22.6 24.9,22.6 25,22.6 25.1,22.5 25.2,22.5 
		25.3,22.5 25.5,22.5 25.6,22.5 25.7,22.4 25.8,22.4 26,22.4 26.1,22.4 26.3,22.4 26.4,22.4 26.6,22.4 26.8,22.4 26.8,22.4 
		26.9,22.5 27,22.5 27.2,22.5 27.3,22.6 27.5,22.6 27.6,22.7 27.7,22.8 27.9,22.8 28,22.9 28.1,23.1 28.2,23.2 28.3,23.3 28.3,23.5 
		28.3,23.6 28.3,23.8 28.3,24 27.8,26.4 	"/>
	<polygon class="st10" points="26.7,25.2 26.7,25.2 26.7,25.2 26.7,25.2 26.6,25.2 26.6,25.2 26.5,25.1 26.4,25.1 26.4,25.1 
		26.3,25.2 26.2,25.2 26.1,25.2 26.1,25.2 26,25.2 25.9,25.2 25.9,25.2 25.8,25.2 25.8,25.2 25.7,25.3 25.7,25.3 25.6,25.3 
		25.6,25.3 25.5,25.4 25.5,25.4 25.4,25.4 25.3,25.5 25.3,25.5 25.2,25.6 25.2,25.6 25.1,25.7 25.1,25.8 25.1,25.8 25,25.9 25,26.1 
		25.1,26.2 25.1,26.3 25.2,26.4 25.2,26.4 25.3,26.4 25.4,26.4 25.5,26.4 25.6,26.4 25.7,26.4 25.9,26.4 26,26.4 26.1,26.3 
		26.1,26.3 26.2,26.3 26.3,26.2 26.4,26.2 26.4,26.1 26.5,26.1 26.5,26 26.5,26 26.5,25.9 26.6,25.8 26.6,25.8 26.6,25.7 26.7,25.5 
		26.7,25.4 26.7,25.2 26.7,25.2 	"/>
	<polygon class="st11" points="18,27.5 16.8,27.5 17.8,21.4 20,21.4 20.2,25 21.8,21.4 24.1,21.4 23,27.5 21.7,27.5 22.5,22.9 
		22.5,22.9 20.6,27.5 19.1,27.5 19.1,27.3 19.1,26.8 19.1,26.1 19,25.2 19,24.4 18.9,23.7 18.9,23.1 18.9,22.9 18.9,22.9 18.8,22.9 
		18.8,22.9 18.8,22.9 18,27.5 18,27.5 	"/>
	<polyline class="st12" points="18,27.5 16.8,27.5 17.8,21.4 20,21.4 20.2,25 21.8,21.4 24.1,21.4 23,27.5 21.7,27.5 22.5,22.9 
		22.5,22.9 20.6,27.5 19.1,27.5 19.1,27.5 19.1,27.3 19.1,26.8 19.1,26.1 19,25.2 19,24.4 18.9,23.7 18.9,23.1 18.9,22.9 18.9,22.9 
		18.9,22.9 18.8,22.9 18.8,22.9 18.8,22.9 18,27.5 	"/>
	<polygon class="st11" points="50.9,26.4 50.7,27.5 49.6,27.5 49.6,27.3 49.6,27.1 49.6,27 49.6,26.9 49.5,27 49.4,27.1 49.4,27.1 
		49.3,27.2 49.2,27.3 49.1,27.3 48.9,27.4 48.8,27.4 48.7,27.5 48.6,27.5 48.4,27.5 48.3,27.5 48.2,27.6 48,27.6 47.9,27.5 
		47.8,27.5 47.6,27.5 47.5,27.4 47.4,27.4 47.2,27.3 47.1,27.2 47,27.2 47,27.1 46.9,27 46.8,26.9 46.8,26.8 46.8,26.7 46.7,26.6 
		46.7,26.5 46.7,26.3 46.7,26.2 46.7,26.1 46.7,26 46.7,25.8 46.8,25.6 46.8,25.5 46.9,25.3 47,25.2 47.1,25.1 47.2,24.9 47.3,24.8 
		47.4,24.7 47.6,24.6 47.7,24.6 47.9,24.5 48,24.5 48.2,24.4 48.3,24.4 48.3,24.4 48.4,24.4 48.4,24.4 48.4,24.4 48.5,24.4 
		48.6,24.4 48.6,24.3 48.7,24.3 48.8,24.3 48.9,24.3 49,24.3 49,24.3 49.1,24.3 49.2,24.3 49.2,24.3 49.3,24.3 49.4,24.3 49.5,24.3 
		49.6,24.3 49.7,24.3 49.8,24.3 49.9,24.3 49.9,24.3 50,24.3 50,24.3 50,24.2 50,24.1 50,24 50,23.9 49.9,23.8 49.9,23.7 49.8,23.7 
		49.7,23.6 49.6,23.6 49.5,23.5 49.4,23.5 49.3,23.5 49.1,23.5 49,23.5 48.9,23.5 48.7,23.5 48.5,23.5 48.4,23.6 48.3,23.6 
		48.1,23.6 48,23.6 47.9,23.6 47.7,23.7 47.6,23.7 47.6,23.7 47.5,23.8 47.4,23.8 47.8,22.7 47.9,22.6 48,22.6 48.1,22.6 48.2,22.5 
		48.3,22.5 48.4,22.5 48.6,22.5 48.7,22.5 48.8,22.4 48.9,22.4 49.1,22.4 49.2,22.4 49.4,22.4 49.5,22.4 49.7,22.4 49.8,22.4 
		50,22.5 50.1,22.5 50.2,22.5 50.4,22.6 50.5,22.6 50.7,22.7 50.8,22.8 51,22.8 51.1,22.9 51.2,23.1 51.3,23.2 51.3,23.3 51.4,23.5 
		51.4,23.6 51.4,23.8 51.4,24 50.9,26.4 50.9,26.4 	"/>
	<polygon class="st11" points="50.7,27.5 50.8,27.5 50.9,26.5 50.9,26.4 50.7,27.5 50.7,27.4 50.7,27.5 50.7,27.5 50.8,27.5 
		50.7,27.5 50.7,27.5 	"/>
	<polygon class="st11" points="49.5,27.5 49.6,27.5 50.7,27.5 50.7,27.4 49.6,27.4 49.6,27.5 49.5,27.5 49.5,27.5 49.6,27.5 
		49.5,27.5 49.5,27.5 	"/>
	<polygon class="st11" points="49.6,27 49.6,26.9 49.5,27 49.5,27.1 49.5,27.3 49.5,27.5 49.6,27.5 49.6,27.3 49.6,27.1 49.6,27 
		49.6,27 49.6,26.9 49.6,27 49.6,27 	"/>
	<polygon class="st11" points="47.8,27.6 47.8,27.6 47.9,27.6 48,27.6 48.2,27.6 48.3,27.6 48.4,27.6 48.6,27.5 48.7,27.5 
		48.8,27.5 49,27.4 49.1,27.4 49.2,27.3 49.3,27.2 49.4,27.2 49.5,27.1 49.5,27 49.6,27 49.6,26.9 49.5,27 49.4,27.1 49.3,27.1 
		49.3,27.2 49.2,27.2 49,27.3 48.9,27.4 48.8,27.4 48.7,27.4 48.6,27.5 48.4,27.5 48.3,27.5 48.2,27.5 48,27.5 47.9,27.5 47.8,27.5 
		47.8,27.5 47.8,27.6 47.8,27.6 	"/>
	<polygon class="st11" points="46.7,26.1 46.7,26.1 46.7,26.2 46.7,26.3 46.7,26.5 46.7,26.6 46.7,26.7 46.8,26.8 46.8,26.9 
		46.9,27 46.9,27.1 47,27.2 47.1,27.3 47.2,27.3 47.3,27.4 47.5,27.5 47.6,27.5 47.8,27.6 47.8,27.5 47.6,27.5 47.5,27.4 47.4,27.4 
		47.2,27.3 47.1,27.2 47.1,27.1 47,27 46.9,27 46.9,26.9 46.8,26.8 46.8,26.7 46.8,26.6 46.7,26.5 46.7,26.3 46.7,26.2 46.7,26.1 
		46.7,26.1 46.7,26.1 46.7,26.1 	"/>
	<polygon class="st11" points="48.3,24.4 48.3,24.4 48.2,24.4 48,24.4 47.9,24.5 47.7,24.5 47.6,24.6 47.4,24.7 47.3,24.8 
		47.2,24.9 47.1,25 47,25.2 46.9,25.3 46.8,25.5 46.7,25.6 46.7,25.8 46.7,26 46.7,26.1 46.7,26.1 46.7,26 46.8,25.8 46.8,25.6 
		46.9,25.5 46.9,25.3 47,25.2 47.1,25.1 47.2,25 47.3,24.9 47.5,24.8 47.6,24.7 47.7,24.6 47.9,24.5 48,24.5 48.2,24.4 48.3,24.4 
		48.3,24.4 48.3,24.4 48.3,24.4 	"/>
	<polygon class="st11" points="49.3,24.3 49.3,24.3 49.2,24.3 49.2,24.3 49.1,24.3 49,24.3 49,24.3 48.9,24.3 48.8,24.3 48.7,24.3 
		48.6,24.3 48.6,24.3 48.5,24.3 48.4,24.3 48.4,24.3 48.4,24.4 48.3,24.4 48.3,24.4 48.3,24.4 48.3,24.4 48.4,24.4 48.4,24.4 
		48.4,24.4 48.5,24.4 48.6,24.4 48.6,24.4 48.7,24.4 48.8,24.4 48.9,24.3 49,24.3 49,24.3 49.1,24.3 49.2,24.3 49.2,24.3 49.3,24.3 
		49.3,24.3 49.3,24.3 49.3,24.3 	"/>
	<polygon class="st11" points="49.9,24.3 50,24.3 49.9,24.3 49.9,24.3 49.8,24.3 49.7,24.3 49.6,24.3 49.5,24.3 49.4,24.3 
		49.3,24.3 49.3,24.3 49.4,24.3 49.5,24.3 49.6,24.3 49.7,24.3 49.8,24.3 49.9,24.3 49.9,24.3 50,24.3 50,24.3 50,24.3 50,24.3 
		50,24.3 49.9,24.3 49.9,24.3 	"/>
	<polygon class="st11" points="50,24 50,24 50,24.1 49.9,24.2 49.9,24.3 49.9,24.3 50,24.3 50,24.3 50,24.2 50,24.1 50,24 50,24 
		50,24 50,24 	"/>
	<polygon class="st11" points="49.4,23.6 49.4,23.6 49.5,23.6 49.6,23.6 49.7,23.6 49.8,23.7 49.9,23.8 49.9,23.8 50,23.9 50,24 
		50,24 50,23.9 50,23.8 49.9,23.7 49.8,23.6 49.7,23.6 49.6,23.5 49.5,23.5 49.4,23.5 49.4,23.5 49.4,23.6 49.4,23.6 	"/>
	<polygon class="st11" points="47.4,23.8 47.5,23.8 47.5,23.8 47.6,23.7 47.7,23.7 47.8,23.7 47.9,23.7 48,23.6 48.1,23.6 
		48.3,23.6 48.4,23.6 48.5,23.6 48.7,23.6 48.9,23.6 49,23.6 49.1,23.6 49.3,23.6 49.4,23.6 49.4,23.5 49.3,23.5 49.1,23.5 49,23.5 
		48.9,23.5 48.7,23.5 48.5,23.5 48.4,23.5 48.3,23.6 48.1,23.6 48,23.6 47.9,23.6 47.7,23.6 47.6,23.7 47.6,23.7 47.5,23.7 
		47.4,23.8 47.5,23.8 47.4,23.8 47.4,23.8 	"/>
	<polygon class="st11" points="47.8,22.6 47.7,22.7 47.4,23.8 47.5,23.8 47.8,22.7 47.8,22.7 47.8,22.6 47.7,22.6 47.7,22.7 
		47.8,22.6 47.8,22.6 	"/>
	<polygon class="st11" points="49.8,22.4 49.8,22.4 49.7,22.4 49.5,22.4 49.4,22.4 49.2,22.4 49.1,22.4 48.9,22.4 48.8,22.4 
		48.7,22.4 48.6,22.4 48.4,22.5 48.3,22.5 48.2,22.5 48.1,22.5 48,22.6 47.9,22.6 47.8,22.6 47.8,22.7 47.9,22.6 48,22.6 48.1,22.6 
		48.2,22.6 48.3,22.5 48.4,22.5 48.6,22.5 48.7,22.5 48.8,22.5 48.9,22.5 49.1,22.5 49.2,22.5 49.4,22.5 49.5,22.5 49.7,22.5 
		49.8,22.5 49.8,22.5 49.8,22.4 49.8,22.4 	"/>
	<polygon class="st11" points="51.4,24 51.4,24 51.5,23.8 51.5,23.6 51.4,23.5 51.4,23.3 51.3,23.2 51.2,23 51.1,22.9 51,22.8 
		50.8,22.7 50.7,22.6 50.6,22.6 50.4,22.5 50.3,22.5 50.1,22.5 50,22.4 49.8,22.4 49.8,22.5 50,22.5 50.1,22.5 50.2,22.5 50.4,22.6 
		50.5,22.6 50.7,22.7 50.8,22.8 50.9,22.9 51.1,23 51.2,23.1 51.2,23.2 51.3,23.3 51.4,23.5 51.4,23.6 51.4,23.8 51.4,24 51.4,24 
		51.4,24 51.4,24 	"/>
	<polygon class="st11" points="50.9,26.5 50.9,26.5 51.4,24 51.4,24 50.9,26.4 50.9,26.4 50.9,26.5 50.9,26.5 	"/>
	<polygon class="st9" points="49.8,25.2 49.8,25.2 49.8,25.2 49.7,25.2 49.7,25.2 49.6,25.1 49.6,25.1 49.5,25.1 49.4,25.1 
		49.4,25.2 49.3,25.2 49.2,25.2 49.1,25.2 49.1,25.2 49,25.2 48.9,25.2 48.9,25.2 48.9,25.2 48.8,25.3 48.8,25.3 48.7,25.3 
		48.7,25.3 48.6,25.3 48.5,25.4 48.5,25.4 48.4,25.5 48.4,25.5 48.3,25.6 48.3,25.6 48.2,25.7 48.2,25.8 48.2,25.8 48.1,25.9 
		48.1,26.1 48.2,26.2 48.2,26.3 48.3,26.4 48.3,26.4 48.4,26.4 48.5,26.4 48.6,26.4 48.7,26.4 48.8,26.4 49,26.4 49.1,26.4 
		49.2,26.3 49.3,26.3 49.3,26.2 49.4,26.2 49.5,26.1 49.5,26.1 49.6,26 49.6,26 49.7,25.9 49.7,25.9 49.7,25.8 49.7,25.7 49.7,25.6 
		49.8,25.5 49.8,25.4 49.8,25.2 49.8,25.2 	"/>
	<polygon class="st11" points="59.4,26.8 59.4,26.7 59.4,26.6 59.5,26.5 59.6,26.4 59.7,26.3 59.8,26.3 59.9,26.2 60,26.2 
		60.2,26.2 60.3,26.3 60.4,26.3 60.5,26.4 60.6,26.5 60.6,26.6 60.7,26.7 60.7,26.8 60.5,26.8 60.5,26.8 60.5,26.7 60.5,26.6 
		60.4,26.5 60.3,26.4 60.2,26.4 60.1,26.3 60,26.3 59.9,26.3 59.8,26.4 59.7,26.4 59.6,26.5 59.6,26.6 59.5,26.7 59.5,26.8 
		59.5,26.8 59.4,26.8 59.4,26.8 	"/>
	<polygon class="st11" points="59.8,26.8 59.8,26.6 60,26.6 60.1,26.6 60.2,26.6 60.2,26.6 60.2,26.6 60.2,26.6 60.3,26.7 
		60.3,26.7 60.3,26.7 60.3,26.8 60.3,26.8 60.2,26.8 60.2,26.8 60,26.8 60.1,26.8 60.1,26.8 60.1,26.8 60.1,26.8 60.2,26.8 
		60.2,26.8 60.2,26.8 60.2,26.7 60.2,26.7 60.2,26.7 60.2,26.7 60.1,26.7 60.1,26.7 60.1,26.7 60.1,26.7 60,26.7 59.9,26.7 
		59.9,26.8 59.8,26.8 59.8,26.8 	"/>
	<polygon class="st11" points="59.4,26.8 59.4,26.9 59.4,27 59.4,27.1 59.5,27.2 59.6,27.3 59.7,27.4 59.8,27.5 59.9,27.5 60,27.5 
		60.2,27.5 60.3,27.5 60.4,27.4 60.5,27.3 60.6,27.2 60.6,27.1 60.7,27 60.7,26.9 60.7,26.8 60.5,26.8 60.5,26.9 60.5,27 60.5,27.1 
		60.5,27.2 60.4,27.3 60.3,27.3 60.2,27.4 60.1,27.4 60,27.4 59.9,27.4 59.8,27.4 59.7,27.3 59.6,27.3 59.6,27.2 59.5,27.1 59.5,27 
		59.5,26.9 59.5,26.8 59.4,26.8 59.4,26.8 	"/>
	<polygon class="st11" points="59.8,26.8 59.8,27.1 59.9,27.1 59.9,26.9 60,26.9 60.2,27.1 60.3,27.1 60.1,26.9 60.1,26.9 
		60.2,26.9 60.2,26.9 60.2,26.9 60.2,26.8 60,26.8 60,26.8 59.9,26.8 59.9,26.8 59.8,26.8 59.8,26.8 	"/>
	<path class="st12" d="M59.4,26.9L59.4,26.9l0-0.1l0-0.1l0.1-0.1l0.1-0.1l0.1-0.1l0.1-0.1l0.1,0l0.1,0l0,0l0.1,0l0.1,0l0.1,0.1
		l0.1,0.1l0.1,0.1l0.1,0.1l0,0.1l0,0.1l0,0l0,0.1l0,0.1l-0.1,0.1l-0.1,0.1l-0.1,0.1l-0.1,0.1l-0.1,0l-0.1,0l0,0l-0.1,0l-0.1,0
		l-0.1-0.1l-0.1-0.1l-0.1-0.1l-0.1-0.1l0-0.1L59.4,26.9 M59.9,27.1h-0.1v-0.6H60l0,0l0.1,0l0.1,0l0,0l0,0l0,0l0,0l0,0l0,0l0,0l0,0
		l0,0l0,0l0,0l0,0l0,0l0,0h0l0.1,0.2h-0.1L60,26.9h-0.1V27.1 M60,26.8L60,26.8L60,26.8L60,26.8l0.1,0l0,0l0,0l0,0l0,0v0l0,0l0,0l0,0
		l0,0l0,0l0,0l0,0h0h0h-0.1v0.2H60 M60,27.4L60,27.4l0.1,0l0.1,0l0.1-0.1l0.1-0.1l0.1-0.1l0-0.1l0-0.1l0-0.1l0,0l0-0.1l0-0.1l0-0.1
		l-0.1-0.1l-0.1-0.1l-0.1,0l-0.1,0l-0.1,0l0,0l-0.1,0l-0.1,0l-0.1,0l-0.1,0.1l-0.1,0.1l0,0.1l0,0.1l0,0.1l0,0l0,0.1l0,0.1l0,0.1
		l0.1,0.1l0.1,0.1l0.1,0.1l0.1,0L60,27.4"/>
	<polygon class="st11" points="51.3,27.5 52.6,27.5 52.6,27.5 53,24.8 53.1,24.7 53.1,24.6 53.1,24.5 53.2,24.4 53.2,24.3 
		53.3,24.2 53.3,24.1 53.4,24 53.5,24 53.6,23.9 53.7,23.8 53.8,23.8 53.9,23.7 54.1,23.7 54.2,23.7 54.4,23.6 54.5,23.6 54.5,23.6 
		54.5,23.6 54.5,23.6 54.7,22.4 54.6,22.5 54.5,22.5 54.4,22.5 54.3,22.5 54.2,22.6 54.1,22.6 54,22.7 53.9,22.7 53.8,22.8 
		53.7,22.8 53.6,22.9 53.6,23 53.5,23.1 53.4,23.2 53.4,23.2 53.3,23.3 53.4,22.5 52.1,22.5 51.3,27.5 51.3,27.5 51.3,27.5 	"/>
	<polyline class="st12" points="51.3,27.5 52.6,27.5 52.6,27.5 53,24.8 53,24.8 53.1,24.7 53.1,24.6 53.1,24.5 53.2,24.4 53.2,24.3 
		53.3,24.2 53.3,24.1 53.4,24 53.5,24 53.6,23.9 53.7,23.8 53.8,23.8 53.9,23.7 54.1,23.7 54.2,23.7 54.4,23.6 54.4,23.6 54.5,23.6 
		54.5,23.6 54.5,23.6 54.5,23.6 54.7,22.4 54.7,22.4 54.6,22.5 54.5,22.5 54.4,22.5 54.3,22.5 54.2,22.6 54.1,22.6 54,22.7 
		53.9,22.7 53.8,22.8 53.7,22.8 53.6,22.9 53.6,23 53.5,23.1 53.4,23.2 53.4,23.2 53.3,23.3 53.4,22.5 52.1,22.5 51.3,27.5 
		51.3,27.5 	"/>
	<polygon class="st11" points="38.9,27.5 40.3,27.5 40.3,27.5 40.7,24.8 40.7,24.7 40.8,24.6 40.8,24.5 40.8,24.4 40.9,24.3 
		40.9,24.3 41,24.2 41,24.1 41.1,24 41.2,24 41.3,23.9 41.4,23.9 41.5,23.8 41.7,23.8 41.8,23.7 42,23.7 42,23.7 42,23.7 42.1,23.7 
		42.1,23.7 42.1,23.7 42.1,23.8 42.1,23.8 42.2,23.8 42.2,23.7 42.2,23.7 42.2,23.6 42.2,23.5 42.2,23.4 42.3,23.2 42.3,23.1 
		42.4,23 42.4,22.9 42.4,22.8 42.5,22.7 42.5,22.6 42.6,22.6 42.6,22.5 42.6,22.5 42.6,22.5 42.6,22.5 42.6,22.5 42.6,22.5 
		42.6,22.5 42.5,22.5 42.5,22.5 42.5,22.4 42.4,22.4 42.3,22.5 42.2,22.5 42,22.5 41.9,22.5 41.8,22.6 41.7,22.6 41.6,22.7 
		41.5,22.7 41.5,22.8 41.4,22.8 41.3,22.9 41.3,23 41.2,23.1 41.1,23.2 41.1,23.2 41,23.3 41.1,22.5 39.8,22.5 38.9,27.5 38.9,27.5 
		38.9,27.5 	"/>
	<polyline class="st12" points="38.9,27.5 40.3,27.5 40.3,27.5 40.7,24.8 40.7,24.8 40.7,24.7 40.8,24.6 40.8,24.5 40.8,24.4 
		40.9,24.3 40.9,24.3 41,24.2 41,24.1 41.1,24 41.2,24 41.3,23.9 41.4,23.9 41.5,23.8 41.7,23.8 41.8,23.7 42,23.7 42,23.7 42,23.7 
		42,23.7 42.1,23.7 42.1,23.7 42.1,23.7 42.1,23.8 42.1,23.8 42.2,23.8 42.2,23.8 42.2,23.7 42.2,23.7 42.2,23.6 42.2,23.5 
		42.2,23.4 42.3,23.2 42.3,23.1 42.4,23 42.4,23 42.4,22.9 42.4,22.8 42.5,22.7 42.5,22.6 42.6,22.6 42.6,22.5 42.6,22.5 42.6,22.5 
		42.6,22.5 42.6,22.5 42.6,22.5 42.6,22.5 42.6,22.5 42.5,22.5 42.5,22.5 42.5,22.4 42.4,22.4 42.4,22.4 42.3,22.5 42.2,22.5 
		42,22.5 41.9,22.5 41.8,22.6 41.7,22.6 41.6,22.7 41.5,22.7 41.5,22.8 41.4,22.8 41.3,22.9 41.3,23 41.2,23.1 41.1,23.2 41.1,23.2 
		41,23.3 41.1,22.5 39.8,22.5 38.9,27.5 38.9,27.5 	"/>
	<polygon class="st9" points="59.4,32.4 59.4,32.4 59.4,32.2 59.5,32.1 59.6,32 59.7,32 59.8,31.9 59.9,31.9 60,31.9 60.2,31.9 
		60.3,31.9 60.4,32 60.5,32 60.6,32.1 60.6,32.2 60.7,32.4 60.7,32.4 60.5,32.4 60.5,32.3 60.5,32.2 60.4,32.1 60.3,32 60.2,32 
		60.1,32 60,31.9 59.9,32 59.8,32 59.7,32 59.6,32.1 59.6,32.2 59.5,32.3 59.5,32.4 59.4,32.4 59.4,32.4 	"/>
	<polygon class="st9" points="59.8,32.4 59.8,32.2 60,32.2 60.1,32.2 60.2,32.2 60.2,32.2 60.2,32.2 60.2,32.3 60.3,32.3 60.3,32.3 
		60.3,32.4 60.2,32.4 60.2,32.3 60.2,32.3 60.2,32.3 60.2,32.3 60.1,32.3 60.1,32.3 60.1,32.3 60.1,32.3 60,32.3 59.9,32.3 
		59.9,32.4 59.8,32.4 59.8,32.4 	"/>
	<polygon class="st9" points="59.4,32.5 59.4,32.4 59.5,32.4 59.5,32.4 59.5,32.5 59.4,32.5 59.4,32.5 	"/>
	<polygon class="st9" points="59.8,32.5 59.8,32.4 59.9,32.4 59.9,32.5 60,32.5 60.1,32.5 60.1,32.5 60.1,32.4 60.1,32.4 60.2,32.4 
		60.2,32.4 60.2,32.4 60.2,32.4 60.3,32.4 60.3,32.4 60.3,32.4 60.3,32.4 60.2,32.5 60.2,32.5 59.8,32.5 59.8,32.5 	"/>
	<polygon class="st9" points="60.5,32.5 60.5,32.4 60.5,32.4 60.7,32.4 60.7,32.5 60.5,32.5 60.5,32.5 	"/>
	<polygon class="st9" points="59.4,32.5 59.4,32.5 59.4,32.6 59.4,32.7 59.5,32.9 59.6,33 59.7,33 59.8,33.1 59.9,33.1 60,33.1 
		60.2,33.1 60.3,33.1 60.4,33 60.5,33 60.6,32.9 60.6,32.7 60.7,32.6 60.7,32.5 60.7,32.5 60.5,32.5 60.5,32.5 60.5,32.6 60.5,32.7 
		60.5,32.8 60.4,32.9 60.3,32.9 60.2,33 60.1,33 60,33 59.9,33 59.8,33 59.7,32.9 59.6,32.9 59.6,32.8 59.5,32.7 59.5,32.6 
		59.5,32.5 59.5,32.5 59.4,32.5 59.4,32.5 	"/>
	<polygon class="st9" points="59.8,32.5 59.8,32.7 59.9,32.7 59.9,32.5 60,32.5 60.2,32.7 60.3,32.7 60.1,32.5 60.1,32.5 60.2,32.5 
		60.2,32.5 60.2,32.5 60.2,32.5 59.8,32.5 59.8,32.5 	"/>
	<path class="st11" d="M39.1,24l0-0.3L39,23.5l-0.1-0.2l-0.1-0.2l-0.1-0.2l-0.2-0.1l-0.2-0.1l-0.2-0.1l-0.2-0.1l-0.2,0l-0.2,0
		l-0.2,0l-0.2,0l-0.4,0l-0.3,0.1l-0.3,0.1l-0.3,0.1l-0.2,0.1L35.5,23l-0.2,0.2l-0.1,0.2L35,23.5l-0.1,0.2l-0.1,0.2l-0.1,0.2
		l-0.1,0.2l0,0.2l0,0.2l0,0.1l0,0.4l0,0.3l0.1,0.3l0.1,0.3l0.1,0.2l0.1,0.2l0.2,0.2l0.2,0.2l0.2,0.1l0.2,0.1l0.2,0.1l0.2,0.1
		l0.2,0.1l0.2,0l0.2,0l0.2,0h0.2l0.1,0h0.1l0.1,0l0.1,0l0.1,0l0.1,0l0.1,0l0.1,0l0.1,0l0.1,0l0.1,0l0.1,0l0.1,0l0.1,0l0.1,0l0.2-1.1
		l-0.1,0.1l-0.1,0.1l-0.1,0.1l-0.1,0.1l-0.1,0l-0.1,0l-0.1,0l-0.1,0l-0.1,0l-0.1,0h-0.1l-0.1,0l-0.1,0l-0.1,0l-0.1,0l-0.1,0l-0.1,0
		l-0.1,0l-0.1,0l-0.1-0.1l-0.1-0.1l-0.1-0.1l-0.1-0.1L36.1,26l-0.1-0.1L36,25.8l0-0.1l0-0.1l0-0.1l0-0.1l0-0.1l0-0.1h3l0-0.3
		l0.1-0.4l0-0.4L39.1,24z M37.8,24.4h-1.7l0,0l0,0l0-0.1l0-0.1l0-0.1l0-0.1l0-0.1l0-0.1l0.1-0.1l0.1-0.1l0.1-0.1l0.1-0.1l0.1-0.1
		l0.1,0l0.1,0l0.1,0l0.1,0l0.1,0l0.1,0l0.1,0l0.1,0l0.1,0l0.1,0l0.1,0l0.1,0l0.1,0l0.1,0.1l0,0.1l0,0.1l0,0.1l0,0.1l0,0.1l0,0.1
		l0,0.1L37.8,24.4z"/>
</g>
</svg>
